{
  "accessors": [
    {
      "bufferView": 2,
      "componentType": 5126,
      "count": 8403,
      "max": [
        1.6000000238418579,
        3.2827224731445312,
        3.1000006198883057
      ],
      "min": [
        -1.6000000238418579,
        1.0161561965942383,
        -3.0999999046325684
      ],
      "type": "VEC3"
    },
    {
      "bufferView": 2,
      "byteOffset": 100836,
      "componentType": 5126,
      "count": 8403,
      "max": [
        1,
        1,
        1
      ],
      "min": [
        -1,
        -1,
        -1
      ],
      "type": "VEC3"
    },
    {
      "bufferView": 3,
      "componentType": 5126,
      "count": 8403,
      "max": [
        1,
        0.814738929271698,
        1,
        1
      ],
      "min": [
        -1,
        -0.65720713138580322,
        -1,
        -1
      ],
      "type": "VEC4"
    },
    {
      "bufferView": 1,
      "componentType": 5126,
      "count": 8403,
      "max": [
        1,
        1
      ],
      "min": [
        0,
        -8.6709130162688699e-19
      ],
      "type": "VEC2"
    },
    {
      "bufferView": 0,
      "componentType": 5125,
      "count": 24858,
      "max": [
        8402
      ],
      "min": [
        0
      ],
      "type": "SCALAR"
    },
    {
      "bufferView": 2,
      "byteOffset": 201672,
      "componentType": 5126,
      "count": 12792,
      "max": [
        1.1764600276947021,
        1.0203878879547119,
        2.1685197353363037
      ],
      "min": [
        -1.1964657306671143,
        1,
        -2.1405706405639648
      ],
      "type": "VEC3"
    },
    {
      "bufferView": 2,
      "byteOffset": 355176,
      "componentType": 5126,
      "count": 12792,
      "max": [
        1,
        1,
        1
      ],
      "min": [
        -1,
        -1,
        -1
      ],
      "type": "VEC3"
    },
    {
      "bufferView": 3,
      "byteOffset": 134448,
      "componentType": 5126,
      "count": 12792,
      "max": [
        1,
        1,
        1,
        1
      ],
      "min": [
        0,
        -1,
        -0.20767112076282501,
        1
      ],
      "type": "VEC4"
    },
    {
      "bufferView": 1,
      "byteOffset": 67224,
      "componentType": 5126,
      "count": 12792,
      "max": [
        0.99800807237625122,
        0.95856332778930664
      ],
      "min": [
        0.0019920321647077799,
        0.0019133001333102584
      ],
      "type": "VEC2"
    },
    {
      "bufferView": 0,
      "byteOffset": 99432,
      "componentType": 5125,
      "count": 35856,
      "max": [
        12791
      ],
      "min": [
        0
      ],
      "type": "SCALAR"
    }
  ],
  "asset": {
    "extras": {
      "author": "Sam (https://sketchfab.com/schow)",
      "license": "CC-BY-4.0 (http://creativecommons.org/licenses/by/4.0/)",
      "source": "https://sketchfab.com/3d-models/lego-piece-6977120a31234b0f98a16d279b102936",
      "title": "Lego Piece"
    },
    "generator": "Sketchfab-6.85.0",
    "version": "2.0"
  },
  "bufferViews": [
    {
      "buffer": 0,
      "byteLength": 242856,
      "byteOffset": 0,
      "name": "floatBufferViews",
      "target": 34963
    },
    {
      "buffer": 0,
      "byteLength": 169560,
      "byteOffset": 242856,
      "byteStride": 8,
      "name": "floatBufferViews",
      "target": 34962
    },
    {
      "buffer": 0,
      "byteLength": 508680,
      "byteOffset": 412416,
      "byteStride": 12,
      "name": "floatBufferViews",
      "target": 34962
    },
    {
      "buffer": 0,
      "byteLength": 339120,
      "byteOffset": 921096,
      "byteStride": 16,
      "name": "floatBufferViews",
      "target": 34962
    }
  ],
  "buffers": [
    {
      "byteLength": 1260216,
      "uri": "scene.bin"
    }
  ],
  "materials": [
    {
      "doubleSided": true,
      "emissiveFactor": [
        0,
        0,
        0
      ],
      "name": "lambert1",
      "pbrMetallicRoughness": {
        "baseColorFactor": [
          0.5,
          0.5,
          0.5,
          1
        ],
        "metallicFactor": 0,
        "roughnessFactor": 0.59999999999999998
      }
    },
    {
      "doubleSided": true,
      "emissiveFactor": [
        0,
        0,
        0
      ],
      "name": "typeBlinn2",
      "pbrMetallicRoughness": {
        "baseColorFactor": [
          1,
          1,
          1,
          1
        ],
        "metallicFactor": 0,
        "roughnessFactor": 0.92074838162494832
      }
    }
  ],
  "meshes": [
    {
      "name": "pCube33_lambert1_0",
      "primitives": [
        {
          "attributes": {
            "NORMAL": 1,
            "POSITION": 0,
            "TANGENT": 2,
            "TEXCOORD_0": 3
          },
          "indices": 4,
          "material": 0,
          "mode": 4
        }
      ]
    },
    {
      "name": "pCube33_typeBlinn2_0",
      "primitives": [
        {
          "attributes": {
            "NORMAL": 6,
            "POSITION": 5,
            "TANGENT": 7,
            "TEXCOORD_0": 8
          },
          "indices": 9,
          "material": 1,
          "mode": 4
        }
      ]
    }
  ],
  "nodes": [
    {
      "children": [
        1
      ],
      "name": "RootNode (gltf orientation matrix)",
      "rotation": [
        -0.70710678118654746,
        -0,
        -0,
        0.70710678118654757
      ]
    },
    {
      "children": [
        2
      ],
      "name": "RootNode (model correction matrix)"
    },
    {
      "children": [
        3
      ],
      "matrix": [
        1,
        0,
        0,
        0,
        0,
        0,
        1,
        0,
        0,
        -1,
        0,
        0,
        0,
        0,
        0,
        1
      ],
      "name": "455783125f044e678ec85c8279257da1.fbx"
    },
    {
      "children": [
        4
      ],
      "name": "RootNode"
    },
    {
      "children": [
        5,
        6
      ],
      "matrix": [
        1,
        0,
        0,
        0,
        0,
        2.2204460492503131e-16,
        -1,
        0,
        0,
        1,
        2.2204460492503131e-16,
        0,
        0,
        3.8490047454833984,
        2.1413617134094238,
        1
      ],
      "name": "pCube33"
    },
    {
      "mesh": 0,
      "name": "pCube33_lambert1_0"
    },
    {
      "mesh": 1,
      "name": "pCube33_typeBlinn2_0"
    }
  ],
  "scene": 0,
  "scenes": [
    {
      "name": "OSG_Scene",
      "nodes": [
        0
      ]
    }
  ]
}

