{
  "accessors": [
    {
      "bufferView": 1,
      "componentType": 5126,
      "count": 1264,
      "max": [
        23.959999084472656,
        39.959999084472656,
        19.180000305175781
      ],
      "min": [
        -31.959999084472656,
        -39.959999084472656,
        6.4200000762939453
      ],
      "type": "VEC3"
    },
    {
      "bufferView": 1,
      "byteOffset": 15168,
      "componentType": 5126,
      "count": 1264,
      "max": [
        1,
        1,
        1
      ],
      "min": [
        -1,
        -1,
        -1
      ],
      "type": "VEC3"
    },
    {
      "bufferView": 0,
      "componentType": 5125,
      "count": 4128,
      "max": [
        1263
      ],
      "min": [
        0
      ],
      "type": "SCALAR"
    },
    {
      "bufferView": 1,
      "byteOffset": 30336,
      "componentType": 5126,
      "count": 12866,
      "max": [
        31.959999084472656,
        39.959999084472656,
        17.799999237060547
      ],
      "min": [
        -31.959999084472656,
        -39.959999084472656,
        0.019999999552965164
      ],
      "type": "VEC3"
    },
    {
      "bufferView": 1,
      "byteOffset": 184728,
      "componentType": 5126,
      "count": 12866,
      "max": [
        1,
        1,
        1
      ],
      "min": [
        -1,
        -1,
        -1
      ],
      "type": "VEC3"
    },
    {
      "bufferView": 0,
      "byteOffset": 16512,
      "componentType": 5125,
      "count": 51516,
      "max": [
        12865
      ],
      "min": [
        0
      ],
      "type": "SCALAR"
    },
    {
      "bufferView": 1,
      "byteOffset": 339120,
      "componentType": 5126,
      "count": 6499,
      "max": [
        31.959999084472656,
        7.9600000381469727,
        21
      ],
      "min": [
        -31.959999084472656,
        -39.96099853515625,
        -9.5799999237060547
      ],
      "type": "VEC3"
    },
    {
      "bufferView": 1,
      "byteOffset": 417108,
      "componentType": 5126,
      "count": 6499,
      "max": [
        1,
        1,
        1
      ],
      "min": [
        -1,
        -1,
        -1
      ],
      "type": "VEC3"
    },
    {
      "bufferView": 0,
      "byteOffset": 222576,
      "componentType": 5125,
      "count": 21786,
      "max": [
        6498
      ],
      "min": [
        0
      ],
      "type": "SCALAR"
    },
    {
      "bufferView": 1,
      "byteOffset": 495096,
      "componentType": 5126,
      "count": 4421,
      "max": [
        31.959999084472656,
        39.96099853515625,
        19.180000305175781
      ],
      "min": [
        -36.599998474121094,
        -31.959999084472656,
        0.019999999552965164
      ],
      "type": "VEC3"
    },
    {
      "bufferView": 1,
      "byteOffset": 548148,
      "componentType": 5126,
      "count": 4421,
      "max": [
        1,
        1,
        1
      ],
      "min": [
        -1,
        -1,
        -1
      ],
      "type": "VEC3"
    },
    {
      "bufferView": 0,
      "byteOffset": 309720,
      "componentType": 5125,
      "count": 15690,
      "max": [
        4420
      ],
      "min": [
        0
      ],
      "type": "SCALAR"
    },
    {
      "bufferView": 1,
      "byteOffset": 601200,
      "componentType": 5126,
      "count": 4925,
      "max": [
        49,
        24,
        14.600000381469727
      ],
      "min": [
        24,
        -24,
        -1.559999942779541
      ],
      "type": "VEC3"
    },
    {
      "bufferView": 1,
      "byteOffset": 660300,
      "componentType": 5126,
      "count": 4925,
      "max": [
        1,
        1,
        1
      ],
      "min": [
        -1,
        -1,
        -1
      ],
      "type": "VEC3"
    },
    {
      "bufferView": 0,
      "byteOffset": 372480,
      "componentType": 5125,
      "count": 16938,
      "max": [
        4924
      ],
      "min": [
        0
      ],
      "type": "SCALAR"
    },
    {
      "bufferView": 1,
      "byteOffset": 719400,
      "componentType": 5126,
      "count": 913,
      "max": [
        23.959999084472656,
        7.9600000381469727,
        21
      ],
      "min": [
        -19.186000823974609,
        -7.9600000381469727,
        9.619999885559082
      ],
      "type": "VEC3"
    },
    {
      "bufferView": 1,
      "byteOffset": 730356,
      "componentType": 5126,
      "count": 913,
      "max": [
        1,
        1,
        1
      ],
      "min": [
        -1,
        -1,
        -1
      ],
      "type": "VEC3"
    },
    {
      "bufferView": 0,
      "byteOffset": 440232,
      "componentType": 5125,
      "count": 3018,
      "max": [
        912
      ],
      "min": [
        0
      ],
      "type": "SCALAR"
    }
  ],
  "asset": {
    "extras": {
      "author": "OilBuds (https://sketchfab.com/OilBuds)",
      "license": "CC-BY-4.0 (http://creativecommons.org/licenses/by/4.0/)",
      "source": "https://sketchfab.com/3d-models/lego-snow-speeder-30384-cd60da8f2ccf459fb1d0c48441143e28",
      "title": "Lego Snow Speeder 30384"
    },
    "generator": "Sketchfab-7.92.0",
    "version": "2.0"
  },
  "bufferViews": [
    {
      "buffer": 0,
      "byteLength": 452304,
      "byteOffset": 0,
      "name": "floatBufferViews",
      "target": 34963
    },
    {
      "buffer": 0,
      "byteLength": 741312,
      "byteOffset": 452304,
      "byteStride": 12,
      "name": "floatBufferViews",
      "target": 34962
    }
  ],
  "buffers": [
    {
      "byteLength": 1193616,
      "uri": "scene.bin"
    }
  ],
  "materials": [
    {
      "doubleSided": true,
      "emissiveFactor": [
        0,
        0,
        0
      ],
      "name": "MB_106",
      "pbrMetallicRoughness": {
        "baseColorFactor": [
          0.91309899999999999,
          0.20507900000000001,
          0.0168074,
          1
        ],
        "metallicFactor": 0,
        "roughnessFactor": 1
      }
    },
    {
      "doubleSided": true,
      "emissiveFactor": [
        0,
        0,
        0
      ],
      "name": "MB_194",
      "pbrMetallicRoughness": {
        "baseColorFactor": [
          0.366253,
          0.36130699999999999,
          0.37123800000000001,
          1
        ],
        "metallicFactor": 0,
        "roughnessFactor": 1
      }
    },
    {
      "doubleSided": true,
      "emissiveFactor": [
        0,
        0,
        0
      ],
      "name": "MB_199",
      "pbrMetallicRoughness": {
        "baseColorFactor": [
          0.074213600000000005,
          0.0822827,
          0.093059000000000003,
          1
        ],
        "metallicFactor": 0,
        "roughnessFactor": 1
      }
    },
    {
      "doubleSided": true,
      "emissiveFactor": [
        0,
        0,
        0
      ],
      "name": "MB_26",
      "pbrMetallicRoughness": {
        "baseColorFactor": [
          0.0051815200000000002,
          0.0051815200000000002,
          0.0051815200000000002,
          1
        ],
        "metallicFactor": 0,
        "roughnessFactor": 1
      }
    },
    {
      "alphaMode": "BLEND",
      "doubleSided": true,
      "emissiveFactor": [
        0,
        0,
        0
      ],
      "name": "MB_40",
      "pbrMetallicRoughness": {
        "baseColorFactor": [
          0.854993,
          0.854993,
          0.854993,
          0.40000000000000002
        ],
        "metallicFactor": 0,
        "roughnessFactor": 1
      }
    }
  ],
  "meshes": [
    {
      "primitives": [
        {
          "attributes": {
            "NORMAL": 1,
            "POSITION": 0
          },
          "indices": 2,
          "material": 0,
          "mode": 4
        }
      ]
    },
    {
      "primitives": [
        {
          "attributes": {
            "NORMAL": 4,
            "POSITION": 3
          },
          "indices": 5,
          "material": 1,
          "mode": 4
        }
      ]
    },
    {
      "primitives": [
        {
          "attributes": {
            "NORMAL": 7,
            "POSITION": 6
          },
          "indices": 8,
          "material": 1,
          "mode": 4
        }
      ]
    },
    {
      "primitives": [
        {
          "attributes": {
            "NORMAL": 10,
            "POSITION": 9
          },
          "indices": 11,
          "material": 2,
          "mode": 4
        }
      ]
    },
    {
      "primitives": [
        {
          "attributes": {
            "NORMAL": 13,
            "POSITION": 12
          },
          "indices": 14,
          "material": 3,
          "mode": 4
        }
      ]
    },
    {
      "primitives": [
        {
          "attributes": {
            "NORMAL": 16,
            "POSITION": 15
          },
          "indices": 17,
          "material": 4,
          "mode": 4
        }
      ]
    }
  ],
  "nodes": [
    {
      "children": [
        1
      ],
      "name": "RootNode (gltf orientation matrix)",
      "rotation": [
        -0.70710678118654746,
        -0,
        -0,
        0.70710678118654757
      ]
    },
    {
      "children": [
        2
      ],
      "name": "RootNode (model correction matrix)"
    },
    {
      "children": [
        3,
        4,
        5,
        6,
        7,
        8
      ],
      "name": "Lego SnowSpeeder 30384.obj.cleaner.materialmerger.gles"
    },
    {
      "mesh": 0,
      "name": ""
    },
    {
      "mesh": 1,
      "name": ""
    },
    {
      "mesh": 2,
      "name": ""
    },
    {
      "mesh": 3,
      "name": ""
    },
    {
      "mesh": 4,
      "name": ""
    },
    {
      "mesh": 5,
      "name": ""
    }
  ],
  "scene": 0,
  "scenes": [
    {
      "name": "OSG_Scene",
      "nodes": [
        0
      ]
    }
  ]
}

