{
  "accessors": [
    {
      "bufferView": 2,
      "componentType": 5126,
      "count": 118,
      "max": [
        2.8271110057830811,
        0.71428918838500977,
        1
      ],
      "min": [
        -0.8271108865737915,
        -0.22773092985153198,
        -1
      ],
      "type": "VEC3"
    },
    {
      "bufferView": 2,
      "byteOffset": 1416,
      "componentType": 5126,
      "count": 118,
      "max": [
        1,
        1,
        1
      ],
      "min": [
        -1,
        -1,
        -1
      ],
      "type": "VEC3"
    },
    {
      "bufferView": 1,
      "componentType": 5126,
      "count": 118,
      "max": [
        0.92810904979705811,
        0.99950051307678223
      ],
      "min": [
        0.00046381040010601282,
        0.00049948692321777344
      ],
      "type": "VEC2"
    },
    {
      "bufferView": 0,
      "componentType": 5125,
      "count": 312,
      "max": [
        117
      ],
      "min": [
        0
      ],
      "type": "SCALAR"
    },
    {
      "bufferView": 2,
      "byteOffset": 2832,
      "componentType": 5126,
      "count": 1400,
      "max": [
        2.7172811031341553,
        1.3956993818283081,
        0.83959102630615234
      ],
      "min": [
        -0.71578502655029297,
        1.0161062479019165,
        -0.84025079011917114
      ],
      "type": "VEC3"
    },
    {
      "bufferView": 2,
      "byteOffset": 19632,
      "componentType": 5126,
      "count": 1400,
      "max": [
        1,
        1,
        1
      ],
      "min": [
        -1,
        -6.2028220781940036e-07,
        -1
      ],
      "type": "VEC3"
    },
    {
      "bufferView": 1,
      "byteOffset": 944,
      "componentType": 5126,
      "count": 1400,
      "max": [
        0.94660896062850952,
        0.99950039386749268
      ],
      "min": [
        0.00047306795022450387,
        0.00049948692321777344
      ],
      "type": "VEC2"
    },
    {
      "bufferView": 0,
      "byteOffset": 1248,
      "componentType": 5125,
      "count": 6912,
      "max": [
        1399
      ],
      "min": [
        0
      ],
      "type": "SCALAR"
    },
    {
      "bufferView": 2,
      "byteOffset": 36432,
      "componentType": 5126,
      "count": 702,
      "max": [
        2.3222420215606689,
        0.98961925506591797,
        0.34761473536491394
      ],
      "min": [
        -0.32981932163238525,
        0.27226924896240234,
        -0.34032014012336731
      ],
      "type": "VEC3"
    },
    {
      "bufferView": 2,
      "byteOffset": 44856,
      "componentType": 5126,
      "count": 702,
      "max": [
        1,
        1,
        1
      ],
      "min": [
        -1,
        -1,
        -1
      ],
      "type": "VEC3"
    },
    {
      "bufferView": 1,
      "byteOffset": 12144,
      "componentType": 5126,
      "count": 702,
      "max": [
        0.99950039386749268,
        0.9413759708404541
      ],
      "min": [
        0.00049948692321777344,
        0.0004704594612121582
      ],
      "type": "VEC2"
    },
    {
      "bufferView": 0,
      "byteOffset": 28896,
      "componentType": 5125,
      "count": 2880,
      "max": [
        701
      ],
      "min": [
        0
      ],
      "type": "SCALAR"
    },
    {
      "bufferView": 2,
      "byteOffset": 53280,
      "componentType": 5126,
      "count": 1725,
      "max": [
        2.7966196537017822,
        0.9607079029083252,
        0.95999997854232788
      ],
      "min": [
        -0.79661977291107178,
        0.89357471466064453,
        -0.95999997854232788
      ],
      "type": "VEC3"
    },
    {
      "bufferView": 2,
      "byteOffset": 73980,
      "componentType": 5126,
      "count": 1725,
      "max": [
        1,
        6.629524432355538e-05,
        1
      ],
      "min": [
        -1,
        -1,
        -1
      ],
      "type": "VEC3"
    },
    {
      "bufferView": 1,
      "byteOffset": 17760,
      "componentType": 5126,
      "count": 1725,
      "max": [
        0.91811567544937134,
        0.99950039386749268
      ],
      "min": [
        0.00045880675315856934,
        0.00074088573455810547
      ],
      "type": "VEC2"
    },
    {
      "bufferView": 0,
      "byteOffset": 40416,
      "componentType": 5125,
      "count": 8064,
      "max": [
        1724
      ],
      "min": [
        0
      ],
      "type": "SCALAR"
    },
    {
      "bufferView": 2,
      "byteOffset": 94680,
      "componentType": 5126,
      "count": 402,
      "max": [
        2.7266199588775635,
        1.0585989952087402,
        0.88999998569488525
      ],
      "min": [
        -0.72661983966827393,
        0.27226924896240234,
        -0.88999998569488525
      ],
      "type": "VEC3"
    },
    {
      "bufferView": 2,
      "byteOffset": 99504,
      "componentType": 5126,
      "count": 402,
      "max": [
        1,
        1,
        1
      ],
      "min": [
        -1,
        -1,
        -1
      ],
      "type": "VEC3"
    },
    {
      "bufferView": 1,
      "byteOffset": 31560,
      "componentType": 5126,
      "count": 402,
      "max": [
        0.999500572681427,
        0.97070372104644775
      ],
      "min": [
        0.00049950054381042719,
        0.00048510939814150333
      ],
      "type": "VEC2"
    },
    {
      "bufferView": 0,
      "byteOffset": 72672,
      "componentType": 5125,
      "count": 720,
      "max": [
        401
      ],
      "min": [
        0
      ],
      "type": "SCALAR"
    }
  ],
  "asset": {
    "extras": {
      "author": "TheRoutine (https://sketchfab.com/TheRoutine)",
      "license": "CC-BY-4.0 (http://creativecommons.org/licenses/by/4.0/)",
      "source": "https://sketchfab.com/3d-models/lego-low-poly-2d38f35b4f624293a07c83b7eb236a70",
      "title": "Lego Low Poly"
    },
    "generator": "Sketchfab-8.42.0",
    "version": "2.0"
  },
  "bufferViews": [
    {
      "buffer": 0,
      "byteLength": 75552,
      "byteOffset": 0,
      "name": "floatBufferViews",
      "target": 34963
    },
    {
      "buffer": 0,
      "byteLength": 34776,
      "byteOffset": 75552,
      "byteStride": 8,
      "name": "floatBufferViews",
      "target": 34962
    },
    {
      "buffer": 0,
      "byteLength": 104328,
      "byteOffset": 110328,
      "byteStride": 12,
      "name": "floatBufferViews",
      "target": 34962
    }
  ],
  "buffers": [
    {
      "byteLength": 214656,
      "uri": "scene.bin"
    }
  ],
  "materials": [
    {
      "doubleSided": true,
      "emissiveFactor": [
        0,
        0,
        0
      ],
      "name": "block_low",
      "pbrMetallicRoughness": {
        "baseColorFactor": [
          1,
          0,
          0,
          1
        ],
        "metallicFactor": 0,
        "roughnessFactor": 0.59999999999999998
      }
    },
    {
      "doubleSided": true,
      "emissiveFactor": [
        0,
        0,
        0
      ],
      "name": "TopCylinder_low",
      "pbrMetallicRoughness": {
        "baseColorFactor": [
          1,
          0,
          0,
          1
        ],
        "metallicFactor": 0,
        "roughnessFactor": 0.59999999999999998
      }
    },
    {
      "doubleSided": true,
      "emissiveFactor": [
        0,
        0,
        0
      ],
      "name": "BottomCylinder_low",
      "pbrMetallicRoughness": {
        "baseColorFactor": [
          1,
          0,
          0,
          1
        ],
        "metallicFactor": 0,
        "roughnessFactor": 0.59999999999999998
      }
    },
    {
      "doubleSided": true,
      "emissiveFactor": [
        0,
        0,
        0
      ],
      "name": "SmallCircleUnderPiece_low",
      "pbrMetallicRoughness": {
        "baseColorFactor": [
          1,
          0,
          0,
          1
        ],
        "metallicFactor": 0,
        "roughnessFactor": 0.59999999999999998
      }
    },
    {
      "doubleSided": true,
      "emissiveFactor": [
        0,
        0,
        0
      ],
      "name": "SmallDetailBlocks_low",
      "pbrMetallicRoughness": {
        "baseColorFactor": [
          1,
          0,
          0,
          1
        ],
        "metallicFactor": 0,
        "roughnessFactor": 0.59999999999999998
      }
    }
  ],
  "meshes": [
    {
      "name": "Block_low_block_low_0",
      "primitives": [
        {
          "attributes": {
            "NORMAL": 1,
            "POSITION": 0,
            "TEXCOORD_0": 2
          },
          "indices": 3,
          "material": 0,
          "mode": 4
        }
      ]
    },
    {
      "name": "Top_Cylinder_low_TopCylinder_low_0",
      "primitives": [
        {
          "attributes": {
            "NORMAL": 5,
            "POSITION": 4,
            "TEXCOORD_0": 6
          },
          "indices": 7,
          "material": 1,
          "mode": 4
        }
      ]
    },
    {
      "name": "Bottom_Cylinder_low_BottomCylinder_low_0",
      "primitives": [
        {
          "attributes": {
            "NORMAL": 9,
            "POSITION": 8,
            "TEXCOORD_0": 10
          },
          "indices": 11,
          "material": 2,
          "mode": 4
        }
      ]
    },
    {
      "name": "Small_Circle_UnderPiece_low_SmallCircleUnderPiece_low_0",
      "primitives": [
        {
          "attributes": {
            "NORMAL": 13,
            "POSITION": 12,
            "TEXCOORD_0": 14
          },
          "indices": 15,
          "material": 3,
          "mode": 4
        }
      ]
    },
    {
      "name": "Small_Detail_Blocks_low_SmallDetailBlocks_low_0",
      "primitives": [
        {
          "attributes": {
            "NORMAL": 17,
            "POSITION": 16,
            "TEXCOORD_0": 18
          },
          "indices": 19,
          "material": 4,
          "mode": 4
        }
      ]
    }
  ],
  "nodes": [
    {
      "children": [
        1
      ],
      "name": "RootNode (gltf orientation matrix)",
      "rotation": [
        -0.70710678118654746,
        -0,
        -0,
        0.70710678118654757
      ]
    },
    {
      "children": [
        2
      ],
      "name": "RootNode (model correction matrix)"
    },
    {
      "children": [
        3
      ],
      "matrix": [
        1,
        0,
        0,
        0,
        0,
        0,
        1,
        0,
        0,
        -1,
        0,
        0,
        0,
        0,
        0,
        1
      ],
      "name": "09519ffc5ec14e6591651fcec4a4fed1.fbx"
    },
    {
      "children": [
        4,
        6,
        8,
        10,
        12
      ],
      "name": "RootNode"
    },
    {
      "children": [
        5
      ],
      "matrix": [
        1,
        0,
        0,
        0,
        0,
        1,
        0,
        0,
        0,
        0,
        1,
        0,
        0,
        0.5,
        0,
        1
      ],
      "name": "Block_low"
    },
    {
      "mesh": 0,
      "name": "Block_low_block_low_0"
    },
    {
      "children": [
        7
      ],
      "name": "Top_Cylinder_low"
    },
    {
      "mesh": 1,
      "name": "Top_Cylinder_low_TopCylinder_low_0"
    },
    {
      "children": [
        9
      ],
      "name": "Bottom_Cylinder_low"
    },
    {
      "mesh": 2,
      "name": "Bottom_Cylinder_low_BottomCylinder_low_0"
    },
    {
      "children": [
        11
      ],
      "name": "Small_Circle_UnderPiece_low"
    },
    {
      "mesh": 3,
      "name": "Small_Circle_UnderPiece_low_SmallCircleUnderPiece_low_0"
    },
    {
      "children": [
        13
      ],
      "name": "Small_Detail_Blocks_low"
    },
    {
      "mesh": 4,
      "name": "Small_Detail_Blocks_low_SmallDetailBlocks_low_0"
    }
  ],
  "scene": 0,
  "scenes": [
    {
      "name": "OSG_Scene",
      "nodes": [
        0
      ]
    }
  ]
}

