{
  "accessors": [
    {
      "bufferView": 2,
      "componentType": 5126,
      "count": 48,
      "max": [
        1.4743020534515381,
        -0.063757002353668213,
        2.9247570037841797
      ],
      "min": [
        0.6762319803237915,
        -3.3231310844421387,
        1.8168890476226807
      ],
      "type": "VEC3"
    },
    {
      "bufferView": 2,
      "byteOffset": 576,
      "componentType": 5126,
      "count": 48,
      "max": [
        0.79989767074584961,
        0.94671899080276489,
        0.22726397216320038
      ],
      "min": [
        -0.51515495777130127,
        -0.9273306131362915,
        -0.98251509666442871
      ],
      "type": "VEC3"
    },
    {
      "bufferView": 1,
      "componentType": 5126,
      "count": 48,
      "max": [
        0,
        0
      ],
      "min": [
        0,
        0
      ],
      "type": "VEC2"
    },
    {
      "bufferView": 0,
      "componentType": 5125,
      "count": 72,
      "max": [
        47
      ],
      "min": [
        0
      ],
      "type": "SCALAR"
    },
    {
      "bufferView": 2,
      "byteOffset": 1152,
      "componentType": 5126,
      "count": 3335,
      "max": [
        6.5243477821350098,
        1.6148409843444824,
        5.8374128341674805
      ],
      "min": [
        -0.60032600164413452,
        -3.592581033706665,
        1.5881940126419067
      ],
      "type": "VEC3"
    },
    {
      "bufferView": 2,
      "byteOffset": 41172,
      "componentType": 5126,
      "count": 3335,
      "max": [
        0.98919522762298584,
        0.99376922845840454,
        1
      ],
      "min": [
        -0.98919802904129028,
        -0.99376809597015381,
        -1
      ],
      "type": "VEC3"
    },
    {
      "bufferView": 3,
      "componentType": 5126,
      "count": 3335,
      "max": [
        0.99779266119003296,
        0.99936652183532715,
        0.98351567983627319,
        1
      ],
      "min": [
        -0.99106627702713013,
        -0.9985383152961731,
        -0.98328876495361328,
        1
      ],
      "type": "VEC4"
    },
    {
      "bufferView": 1,
      "byteOffset": 384,
      "componentType": 5126,
      "count": 3335,
      "max": [
        0.9419180154800415,
        0.97429502010345459
      ],
      "min": [
        0.10835599899291992,
        0.036219000816345215
      ],
      "type": "VEC2"
    },
    {
      "bufferView": 0,
      "byteOffset": 288,
      "componentType": 5125,
      "count": 30060,
      "max": [
        3334
      ],
      "min": [
        0
      ],
      "type": "SCALAR"
    },
    {
      "bufferView": 2,
      "byteOffset": 81192,
      "componentType": 5126,
      "count": 2864,
      "max": [
        7.2944369316101074,
        2.4261589050292969,
        5.8374128341674805
      ],
      "min": [
        -0.70593500137329102,
        -3.7576370239257812,
        -0.0096389995887875557
      ],
      "type": "VEC3"
    },
    {
      "bufferView": 2,
      "byteOffset": 115560,
      "componentType": 5126,
      "count": 2864,
      "max": [
        0.99993753433227539,
        1,
        1
      ],
      "min": [
        -0.99985063076019287,
        -0.99973273277282715,
        -1
      ],
      "type": "VEC3"
    },
    {
      "bufferView": 3,
      "byteOffset": 53360,
      "componentType": 5126,
      "count": 2864,
      "max": [
        0.99999988079071045,
        0.99936628341674805,
        0.9999997615814209,
        1
      ],
      "min": [
        -0.99626606702804565,
        -0.99982297420501709,
        -0.99726742506027222,
        -1
      ],
      "type": "VEC4"
    },
    {
      "bufferView": 1,
      "byteOffset": 27064,
      "componentType": 5126,
      "count": 2864,
      "max": [
        0.98429399728775024,
        0.98260200023651123
      ],
      "min": [
        0.0047010001726448536,
        0.017971999943256378
      ],
      "type": "VEC2"
    },
    {
      "bufferView": 0,
      "byteOffset": 120528,
      "componentType": 5125,
      "count": 23466,
      "max": [
        2863
      ],
      "min": [
        0
      ],
      "type": "SCALAR"
    }
  ],
  "asset": {
    "extras": {
      "author": "magda.la (https://sketchfab.com/magda.la)",
      "license": "CC-BY-4.0 (http://creativecommons.org/licenses/by/4.0/)",
      "source": "https://sketchfab.com/3d-models/the-artist-ba0050a45bdd4bf385c5cb875b61895e",
      "title": "The artist"
    },
    "generator": "Sketchfab-7.16.0",
    "version": "2.0"
  },
  "bufferViews": [
    {
      "buffer": 0,
      "byteLength": 214392,
      "byteOffset": 0,
      "name": "floatBufferViews",
      "target": 34963
    },
    {
      "buffer": 0,
      "byteLength": 49976,
      "byteOffset": 214392,
      "byteStride": 8,
      "name": "floatBufferViews",
      "target": 34962
    },
    {
      "buffer": 0,
      "byteLength": 149928,
      "byteOffset": 264368,
      "byteStride": 12,
      "name": "floatBufferViews",
      "target": 34962
    },
    {
      "buffer": 0,
      "byteLength": 99184,
      "byteOffset": 414296,
      "byteStride": 16,
      "name": "floatBufferViews",
      "target": 34962
    }
  ],
  "buffers": [
    {
      "byteLength": 513480,
      "uri": "scene.bin"
    }
  ],
  "images": [
    {
      "uri": "textures/lambert12SG_baseColor.png"
    }
  ],
  "materials": [
    {
      "doubleSided": true,
      "name": "lambert12SG",
      "pbrMetallicRoughness": {
        "baseColorFactor": [
          1,
          1,
          1,
          1
        ],
        "baseColorTexture": {
          "index": 0,
          "texCoord": 0
        },
        "metallicFactor": 0,
        "roughnessFactor": 0
      }
    }
  ],
  "meshes": [
    {
      "primitives": [
        {
          "attributes": {
            "NORMAL": 1,
            "POSITION": 0,
            "TEXCOORD_0": 2
          },
          "indices": 3,
          "material": 0,
          "mode": 4
        }
      ]
    },
    {
      "primitives": [
        {
          "attributes": {
            "NORMAL": 5,
            "POSITION": 4,
            "TANGENT": 6,
            "TEXCOORD_0": 7
          },
          "indices": 8,
          "material": 0,
          "mode": 4
        }
      ]
    },
    {
      "primitives": [
        {
          "attributes": {
            "NORMAL": 10,
            "POSITION": 9,
            "TANGENT": 11,
            "TEXCOORD_0": 12
          },
          "indices": 13,
          "material": 0,
          "mode": 4
        }
      ]
    }
  ],
  "nodes": [
    {
      "children": [
        1
      ],
      "name": "RootNode (gltf orientation matrix)",
      "rotation": [
        -0.70710678118654746,
        -0,
        -0,
        0.70710678118654757
      ]
    },
    {
      "children": [
        2
      ],
      "name": "RootNode (model correction matrix)"
    },
    {
      "children": [
        3,
        4,
        5
      ],
      "name": "lego.obj.cleaner.materialmerger.gles"
    },
    {
      "mesh": 0,
      "name": ""
    },
    {
      "mesh": 1,
      "name": ""
    },
    {
      "mesh": 2,
      "name": ""
    }
  ],
  "samplers": [
    {
      "magFilter": 9729,
      "minFilter": 9987,
      "wrapS": 10497,
      "wrapT": 10497
    }
  ],
  "scene": 0,
  "scenes": [
    {
      "name": "OSG_Scene",
      "nodes": [
        0
      ]
    }
  ],
  "textures": [
    {
      "sampler": 0,
      "source": 0
    }
  ]
}

