{
  "accessors": [
    {
      "bufferView": 2,
      "componentType": 5126,
      "count": 65534,
      "max": [
        17.940391540527344,
        16.598026275634766,
        27.007116317749023
      ],
      "min": [
        -20.083320617675781,
        -0.10837952792644501,
        -8.8285446166992188
      ],
      "type": "VEC3"
    },
    {
      "bufferView": 2,
      "byteOffset": 786408,
      "componentType": 5126,
      "count": 65534,
      "max": [
        1,
        1,
        1
      ],
      "min": [
        -1,
        -1,
        -1
      ],
      "type": "VEC3"
    },
    {
      "bufferView": 3,
      "componentType": 5126,
      "count": 65534,
      "max": [
        1,
        1,
        1,
        1
      ],
      "min": [
        -1,
        -1,
        -1,
        -1
      ],
      "type": "VEC4"
    },
    {
      "bufferView": 1,
      "componentType": 5126,
      "count": 65534,
      "max": [
        0.99471700191497803,
        1
      ],
      "min": [
        0,
        0
      ],
      "type": "VEC2"
    },
    {
      "bufferView": 0,
      "componentType": 5125,
      "count": 164103,
      "max": [
        65533
      ],
      "min": [
        0
      ],
      "type": "SCALAR"
    },
    {
      "bufferView": 2,
      "byteOffset": 1572816,
      "componentType": 5126,
      "count": 27515,
      "max": [
        3.9857864379882812,
        16.598026275634766,
        27.007116317749023
      ],
      "min": [
        -20.083320617675781,
        -0.0076209534890949726,
        -8.8285446166992188
      ],
      "type": "VEC3"
    },
    {
      "bufferView": 2,
      "byteOffset": 1902996,
      "componentType": 5126,
      "count": 27515,
      "max": [
        1,
        1,
        1
      ],
      "min": [
        -1,
        -1,
        -1
      ],
      "type": "VEC3"
    },
    {
      "bufferView": 3,
      "byteOffset": 1048544,
      "componentType": 5126,
      "count": 27515,
      "max": [
        1,
        0.59855109453201294,
        1,
        1
      ],
      "min": [
        -1,
        -0.59855735301971436,
        -1,
        -1
      ],
      "type": "VEC4"
    },
    {
      "bufferView": 1,
      "byteOffset": 524272,
      "componentType": 5126,
      "count": 27515,
      "max": [
        0.87374299764633179,
        1
      ],
      "min": [
        0.013244000263512135,
        0
      ],
      "type": "VEC2"
    },
    {
      "bufferView": 0,
      "byteOffset": 656412,
      "componentType": 5125,
      "count": 60357,
      "max": [
        27514
      ],
      "min": [
        0
      ],
      "type": "SCALAR"
    },
    {
      "bufferView": 2,
      "byteOffset": 2233176,
      "componentType": 5126,
      "count": 3137,
      "max": [
        17.825292587280273,
        15.170555114746094,
        16.574623107910156
      ],
      "min": [
        -17.973739624023438,
        0.083362527191638947,
        -4.3100786209106445
      ],
      "type": "VEC3"
    },
    {
      "bufferView": 2,
      "byteOffset": 2270820,
      "componentType": 5126,
      "count": 3137,
      "max": [
        1,
        1,
        1
      ],
      "min": [
        -1,
        -1,
        -1
      ],
      "type": "VEC3"
    },
    {
      "bufferView": 3,
      "byteOffset": 1488784,
      "componentType": 5126,
      "count": 3137,
      "max": [
        1,
        3.5187158144707426e-17,
        1,
        1
      ],
      "min": [
        -1,
        -0.014185115694999695,
        -1,
        -1
      ],
      "type": "VEC4"
    },
    {
      "bufferView": 1,
      "byteOffset": 744392,
      "componentType": 5126,
      "count": 3137,
      "max": [
        0.97100001573562622,
        1
      ],
      "min": [
        0,
        0
      ],
      "type": "VEC2"
    },
    {
      "bufferView": 0,
      "byteOffset": 897840,
      "componentType": 5125,
      "count": 9264,
      "max": [
        3136
      ],
      "min": [
        0
      ],
      "type": "SCALAR"
    },
    {
      "bufferView": 2,
      "byteOffset": 2308464,
      "componentType": 5126,
      "count": 65533,
      "max": [
        19.685541152954102,
        17.765159606933594,
        16.710073471069336
      ],
      "min": [
        -21.961631774902344,
        -0.082220114767551422,
        -6.9189386367797852
      ],
      "type": "VEC3"
    },
    {
      "bufferView": 2,
      "byteOffset": 3094860,
      "componentType": 5126,
      "count": 65533,
      "max": [
        1,
        1,
        1
      ],
      "min": [
        -1,
        -1,
        -1
      ],
      "type": "VEC3"
    },
    {
      "bufferView": 3,
      "byteOffset": 1538976,
      "componentType": 5126,
      "count": 65533,
      "max": [
        1,
        1,
        1,
        1
      ],
      "min": [
        -1,
        -1,
        -1,
        -1
      ],
      "type": "VEC4"
    },
    {
      "bufferView": 1,
      "byteOffset": 769488,
      "componentType": 5126,
      "count": 65533,
      "max": [
        0.99471700191497803,
        1
      ],
      "min": [
        0,
        -9.3132257461547852e-10
      ],
      "type": "VEC2"
    },
    {
      "bufferView": 0,
      "byteOffset": 934896,
      "componentType": 5125,
      "count": 184491,
      "max": [
        65532
      ],
      "min": [
        0
      ],
      "type": "SCALAR"
    },
    {
      "bufferView": 2,
      "byteOffset": 3881256,
      "componentType": 5126,
      "count": 33863,
      "max": [
        19.685541152954102,
        17.765159606933594,
        12.984027862548828
      ],
      "min": [
        -21.961631774902344,
        10.593625068664551,
        -6.9189386367797852
      ],
      "type": "VEC3"
    },
    {
      "bufferView": 2,
      "byteOffset": 4287612,
      "componentType": 5126,
      "count": 33863,
      "max": [
        1,
        1,
        1
      ],
      "min": [
        -1,
        -1,
        -1
      ],
      "type": "VEC3"
    },
    {
      "bufferView": 3,
      "byteOffset": 2587504,
      "componentType": 5126,
      "count": 33863,
      "max": [
        1,
        0.99999809265136719,
        1,
        1
      ],
      "min": [
        -1,
        -0.99999809265136719,
        -1,
        -1
      ],
      "type": "VEC4"
    },
    {
      "bufferView": 1,
      "byteOffset": 1293752,
      "componentType": 5126,
      "count": 33863,
      "max": [
        0.87374299764633179,
        1
      ],
      "min": [
        0.013244000263512135,
        0
      ],
      "type": "VEC2"
    },
    {
      "bufferView": 0,
      "byteOffset": 1672860,
      "componentType": 5125,
      "count": 76125,
      "max": [
        33862
      ],
      "min": [
        0
      ],
      "type": "SCALAR"
    },
    {
      "bufferView": 2,
      "byteOffset": 4693968,
      "componentType": 5126,
      "count": 65532,
      "max": [
        -10.266421318054199,
        5.7488903999328613,
        9.7759151458740234
      ],
      "min": [
        -16.764741897583008,
        0.30016666650772095,
        -4.0797390937805176
      ],
      "type": "VEC3"
    },
    {
      "bufferView": 2,
      "byteOffset": 5480352,
      "componentType": 5126,
      "count": 65532,
      "max": [
        1,
        1,
        1
      ],
      "min": [
        -1,
        -1,
        -1
      ],
      "type": "VEC3"
    },
    {
      "bufferView": 3,
      "byteOffset": 3129312,
      "componentType": 5126,
      "count": 65532,
      "max": [
        1,
        1,
        1,
        1
      ],
      "min": [
        -1,
        -1,
        -1,
        -1
      ],
      "type": "VEC4"
    },
    {
      "bufferView": 1,
      "byteOffset": 1564656,
      "componentType": 5126,
      "count": 65532,
      "max": [
        0.9660000205039978,
        1
      ],
      "min": [
        0,
        0
      ],
      "type": "VEC2"
    },
    {
      "bufferView": 0,
      "byteOffset": 1977360,
      "componentType": 5125,
      "count": 244023,
      "max": [
        65531
      ],
      "min": [
        0
      ],
      "type": "SCALAR"
    },
    {
      "bufferView": 2,
      "byteOffset": 6266736,
      "componentType": 5126,
      "count": 18389,
      "max": [
        -9.766937255859375,
        5.4070529937744141,
        10.176505088806152
      ],
      "min": [
        -16.764741897583008,
        0.68000566959381104,
        -4.0797390937805176
      ],
      "type": "VEC3"
    },
    {
      "bufferView": 2,
      "byteOffset": 6487404,
      "componentType": 5126,
      "count": 18389,
      "max": [
        1,
        1,
        1
      ],
      "min": [
        -1,
        -1,
        -1
      ],
      "type": "VEC3"
    },
    {
      "bufferView": 3,
      "byteOffset": 4177824,
      "componentType": 5126,
      "count": 18389,
      "max": [
        1,
        1,
        1,
        1
      ],
      "min": [
        -1,
        -0.94584810733795166,
        -1,
        -1
      ],
      "type": "VEC4"
    },
    {
      "bufferView": 1,
      "byteOffset": 2088912,
      "componentType": 5126,
      "count": 18389,
      "max": [
        0.9819139838218689,
        1
      ],
      "min": [
        0,
        0
      ],
      "type": "VEC2"
    },
    {
      "bufferView": 0,
      "byteOffset": 2953452,
      "componentType": 5125,
      "count": 65139,
      "max": [
        18388
      ],
      "min": [
        0
      ],
      "type": "SCALAR"
    },
    {
      "bufferView": 2,
      "byteOffset": 6708072,
      "componentType": 5126,
      "count": 28032,
      "max": [
        -9.8733425140380859,
        2.5522284507751465,
        8.2459115982055664
      ],
      "min": [
        -16.633296966552734,
        -0.099072456359863281,
        -2.3947577476501465
      ],
      "type": "VEC3"
    },
    {
      "bufferView": 2,
      "byteOffset": 7044456,
      "componentType": 5126,
      "count": 28032,
      "max": [
        1,
        1,
        1
      ],
      "min": [
        -1,
        -1,
        -1
      ],
      "type": "VEC3"
    },
    {
      "bufferView": 3,
      "byteOffset": 4472048,
      "componentType": 5126,
      "count": 28032,
      "max": [
        0,
        0,
        0,
        1
      ],
      "min": [
        0,
        0,
        0,
        1
      ],
      "type": "VEC4"
    },
    {
      "bufferView": 1,
      "byteOffset": 2236024,
      "componentType": 5126,
      "count": 28032,
      "max": [
        0,
        0
      ],
      "min": [
        0,
        0
      ],
      "type": "VEC2"
    },
    {
      "bufferView": 0,
      "byteOffset": 3214008,
      "componentType": 5125,
      "count": 85248,
      "max": [
        28031
      ],
      "min": [
        0
      ],
      "type": "SCALAR"
    },
    {
      "bufferView": 2,
      "byteOffset": 7380840,
      "componentType": 5126,
      "count": 38122,
      "max": [
        19.999847412109375,
        0.56278336048126221,
        26.84254264831543
      ],
      "min": [
        -21.88038444519043,
        -0.0076209534890949726,
        10.843526840209961
      ],
      "type": "VEC3"
    },
    {
      "bufferView": 2,
      "byteOffset": 7838304,
      "componentType": 5126,
      "count": 38122,
      "max": [
        1,
        1,
        1
      ],
      "min": [
        -1,
        -1,
        -1
      ],
      "type": "VEC3"
    },
    {
      "bufferView": 3,
      "byteOffset": 4920560,
      "componentType": 5126,
      "count": 38122,
      "max": [
        1,
        1,
        1,
        1
      ],
      "min": [
        -0.8660271167755127,
        -1,
        -1,
        -1
      ],
      "type": "VEC4"
    },
    {
      "bufferView": 1,
      "byteOffset": 2460280,
      "componentType": 5126,
      "count": 38122,
      "max": [
        0.99471700191497803,
        1
      ],
      "min": [
        0.013244000263512135,
        0
      ],
      "type": "VEC2"
    },
    {
      "bufferView": 0,
      "byteOffset": 3555000,
      "componentType": 5125,
      "count": 85176,
      "max": [
        38121
      ],
      "min": [
        0
      ],
      "type": "SCALAR"
    }
  ],
  "asset": {
    "extras": {
      "author": "Brit Kids Digital Design (https://sketchfab.com/bkids)",
      "license": "CC-BY-4.0 (http://creativecommons.org/licenses/by/4.0/)",
      "source": "https://sketchfab.com/3d-models/house-daniel-lego-6ad48f1ec149483f9815ec926d32dfb5",
      "title": "House Daniel Lego"
    },
    "generator": "Sketchfab-7.7.0",
    "version": "2.0"
  },
  "bufferViews": [
    {
      "buffer": 0,
      "byteLength": 3895704,
      "byteOffset": 0,
      "name": "floatBufferViews",
      "target": 34963
    },
    {
      "buffer": 0,
      "byteLength": 2765256,
      "byteOffset": 3895704,
      "byteStride": 8,
      "name": "floatBufferViews",
      "target": 34962
    },
    {
      "buffer": 0,
      "byteLength": 8295768,
      "byteOffset": 6660960,
      "byteStride": 12,
      "name": "floatBufferViews",
      "target": 34962
    },
    {
      "buffer": 0,
      "byteLength": 5530512,
      "byteOffset": 14956728,
      "byteStride": 16,
      "name": "floatBufferViews",
      "target": 34962
    }
  ],
  "buffers": [
    {
      "byteLength": 20487240,
      "uri": "scene.bin"
    }
  ],
  "materials": [
    {
      "doubleSided": true,
      "name": "Lego_White",
      "pbrMetallicRoughness": {
        "baseColorFactor": [
          1,
          1,
          1,
          1
        ],
        "metallicFactor": 0,
        "roughnessFactor": 0.59999999999999998
      }
    },
    {
      "doubleSided": true,
      "name": "Lego_Glass",
      "pbrMetallicRoughness": {
        "baseColorFactor": [
          0.012576068638653603,
          0.004062517421217062,
          0.56123881032159872,
          1
        ],
        "metallicFactor": 0,
        "roughnessFactor": 0
      }
    },
    {
      "doubleSided": true,
      "name": "Lego_Black",
      "pbrMetallicRoughness": {
        "baseColorFactor": [
          0.0027398010904408385,
          0.00060615068372584923,
          0.00060615068372584923,
          1
        ],
        "metallicFactor": 0,
        "roughnessFactor": 0
      }
    },
    {
      "doubleSided": true,
      "name": "Lego_Red",
      "pbrMetallicRoughness": {
        "baseColorFactor": [
          0.65924126863515453,
          0.0047839165415587788,
          0.0047839165415587788,
          1
        ],
        "metallicFactor": 0,
        "roughnessFactor": 0
      }
    },
    {
      "doubleSided": true,
      "name": "Rubber",
      "pbrMetallicRoughness": {
        "baseColorFactor": [
          0.49203814104980514,
          0.011078756926625532,
          0.011078756926625532,
          1
        ],
        "metallicFactor": 0,
        "roughnessFactor": 0
      }
    },
    {
      "doubleSided": true,
      "name": "GRASS",
      "pbrMetallicRoughness": {
        "baseColorFactor": [
          1,
          1,
          1,
          1
        ],
        "metallicFactor": 0,
        "roughnessFactor": 0.59999999999999998
      }
    }
  ],
  "meshes": [
    {
      "name": "L2x2Flat74_Lego_White_0",
      "primitives": [
        {
          "attributes": {
            "NORMAL": 1,
            "POSITION": 0,
            "TANGENT": 2,
            "TEXCOORD_0": 3
          },
          "indices": 4,
          "material": 0,
          "mode": 4
        }
      ]
    },
    {
      "name": "L2x2Flat74_Lego_White_0",
      "primitives": [
        {
          "attributes": {
            "NORMAL": 6,
            "POSITION": 5,
            "TANGENT": 7,
            "TEXCOORD_0": 8
          },
          "indices": 9,
          "material": 0,
          "mode": 4
        }
      ]
    },
    {
      "name": "L2x2Flat74_Lego_Glass_0",
      "primitives": [
        {
          "attributes": {
            "NORMAL": 11,
            "POSITION": 10,
            "TANGENT": 12,
            "TEXCOORD_0": 13
          },
          "indices": 14,
          "material": 1,
          "mode": 4
        }
      ]
    },
    {
      "name": "L2x2Flat74_Lego_Black_0",
      "primitives": [
        {
          "attributes": {
            "NORMAL": 16,
            "POSITION": 15,
            "TANGENT": 17,
            "TEXCOORD_0": 18
          },
          "indices": 19,
          "material": 2,
          "mode": 4
        }
      ]
    },
    {
      "name": "L2x2Flat74_Lego_Black_0",
      "primitives": [
        {
          "attributes": {
            "NORMAL": 21,
            "POSITION": 20,
            "TANGENT": 22,
            "TEXCOORD_0": 23
          },
          "indices": 24,
          "material": 2,
          "mode": 4
        }
      ]
    },
    {
      "name": "L2x2Flat74_Lego_Red_0",
      "primitives": [
        {
          "attributes": {
            "NORMAL": 26,
            "POSITION": 25,
            "TANGENT": 27,
            "TEXCOORD_0": 28
          },
          "indices": 29,
          "material": 3,
          "mode": 4
        }
      ]
    },
    {
      "name": "L2x2Flat74_Lego_Red_0",
      "primitives": [
        {
          "attributes": {
            "NORMAL": 31,
            "POSITION": 30,
            "TANGENT": 32,
            "TEXCOORD_0": 33
          },
          "indices": 34,
          "material": 3,
          "mode": 4
        }
      ]
    },
    {
      "name": "L2x2Flat74_Rubber_0",
      "primitives": [
        {
          "attributes": {
            "NORMAL": 36,
            "POSITION": 35,
            "TANGENT": 37,
            "TEXCOORD_0": 38
          },
          "indices": 39,
          "material": 4,
          "mode": 4
        }
      ]
    },
    {
      "name": "L2x2Flat74_GRASS_0",
      "primitives": [
        {
          "attributes": {
            "NORMAL": 41,
            "POSITION": 40,
            "TANGENT": 42,
            "TEXCOORD_0": 43
          },
          "indices": 44,
          "material": 5,
          "mode": 4
        }
      ]
    }
  ],
  "nodes": [
    {
      "children": [
        1
      ],
      "name": "RootNode (gltf orientation matrix)",
      "rotation": [
        -0.70710678118654746,
        -0,
        -0,
        0.70710678118654757
      ]
    },
    {
      "children": [
        2
      ],
      "name": "RootNode (model correction matrix)"
    },
    {
      "children": [
        3
      ],
      "matrix": [
        1,
        0,
        0,
        0,
        0,
        0,
        1,
        0,
        0,
        -1,
        0,
        0,
        0,
        0,
        0,
        1
      ],
      "name": "cd4605c04f41412591264f9e2c0c06af.fbx"
    },
    {
      "children": [
        4
      ],
      "name": "RootNode"
    },
    {
      "children": [
        5,
        6,
        7,
        8,
        9,
        10,
        11,
        12,
        13
      ],
      "name": "L2x2Flat74"
    },
    {
      "mesh": 0,
      "name": "L2x2Flat74_Lego_White_0"
    },
    {
      "mesh": 1,
      "name": "L2x2Flat74_Lego_White_0"
    },
    {
      "mesh": 2,
      "name": "L2x2Flat74_Lego_Glass_0"
    },
    {
      "mesh": 3,
      "name": "L2x2Flat74_Lego_Black_0"
    },
    {
      "mesh": 4,
      "name": "L2x2Flat74_Lego_Black_0"
    },
    {
      "mesh": 5,
      "name": "L2x2Flat74_Lego_Red_0"
    },
    {
      "mesh": 6,
      "name": "L2x2Flat74_Lego_Red_0"
    },
    {
      "mesh": 7,
      "name": "L2x2Flat74_Rubber_0"
    },
    {
      "mesh": 8,
      "name": "L2x2Flat74_GRASS_0"
    }
  ],
  "scene": 0,
  "scenes": [
    {
      "name": "OSG_Scene",
      "nodes": [
        0
      ]
    }
  ]
}

