{
  "accessors": [
    {
      "bufferView": 2,
      "componentType": 5126,
      "count": 65532,
      "max": [
        1.0000002384185791,
        1.2467700242996216,
        1.0000002384185791
      ],
      "min": [
        -1.0000002384185791,
        -0.1645398885011673,
        -1.0000002384185791
      ],
      "type": "VEC3"
    },
    {
      "bufferView": 2,
      "byteOffset": 786384,
      "componentType": 5126,
      "count": 65532,
      "max": [
        1,
        1,
        1
      ],
      "min": [
        -1,
        -1,
        -1
      ],
      "type": "VEC3"
    },
    {
      "bufferView": 1,
      "componentType": 5126,
      "count": 65532,
      "max": [
        0.87500011920928955,
        1.0000001192092896
      ],
      "min": [
        0.125,
        0
      ],
      "type": "VEC2"
    },
    {
      "bufferView": 0,
      "componentType": 5125,
      "count": 337314,
      "max": [
        65531
      ],
      "min": [
        0
      ],
      "type": "SCALAR"
    },
    {
      "bufferView": 2,
      "byteOffset": 1572768,
      "componentType": 5126,
      "count": 10452,
      "max": [
        0.86942595243453979,
        1.2023344039916992,
        1.0000001192092896
      ],
      "min": [
        -0.87682366371154785,
        -0.15715302526950836,
        -1.0000001192092896
      ],
      "type": "VEC3"
    },
    {
      "bufferView": 2,
      "byteOffset": 1698192,
      "componentType": 5126,
      "count": 10452,
      "max": [
        1,
        0.99978947639465332,
        1
      ],
      "min": [
        -1,
        -0.90824234485626221,
        -1
      ],
      "type": "VEC3"
    },
    {
      "bufferView": 1,
      "byteOffset": 524256,
      "componentType": 5126,
      "count": 10452,
      "max": [
        0.83443009853363037,
        0.9592471718788147
      ],
      "min": [
        0.37627962231636047,
        0.33241957426071167
      ],
      "type": "VEC2"
    },
    {
      "bufferView": 0,
      "byteOffset": 1349256,
      "componentType": 5125,
      "count": 31326,
      "max": [
        10451
      ],
      "min": [
        0
      ],
      "type": "SCALAR"
    },
    {
      "bufferView": 2,
      "byteOffset": 1823616,
      "componentType": 5126,
      "count": 65532,
      "max": [
        1.0000002384185791,
        1.2467700242996216,
        1.0000002384185791
      ],
      "min": [
        -1.0000002384185791,
        -0.1645398885011673,
        -1.0000002384185791
      ],
      "type": "VEC3"
    },
    {
      "bufferView": 2,
      "byteOffset": 2610000,
      "componentType": 5126,
      "count": 65532,
      "max": [
        1,
        1,
        1
      ],
      "min": [
        -1,
        -1,
        -1
      ],
      "type": "VEC3"
    },
    {
      "bufferView": 1,
      "byteOffset": 607872,
      "componentType": 5126,
      "count": 65532,
      "max": [
        0.87500011920928955,
        1.0000001192092896
      ],
      "min": [
        0.125,
        0
      ],
      "type": "VEC2"
    },
    {
      "bufferView": 0,
      "byteOffset": 1474560,
      "componentType": 5125,
      "count": 337314,
      "max": [
        65531
      ],
      "min": [
        0
      ],
      "type": "SCALAR"
    },
    {
      "bufferView": 2,
      "byteOffset": 3396384,
      "componentType": 5126,
      "count": 10452,
      "max": [
        0.86942595243453979,
        1.2023344039916992,
        1.0000001192092896
      ],
      "min": [
        -0.87682366371154785,
        -0.15715302526950836,
        -1.0000001192092896
      ],
      "type": "VEC3"
    },
    {
      "bufferView": 2,
      "byteOffset": 3521808,
      "componentType": 5126,
      "count": 10452,
      "max": [
        1,
        0.99978947639465332,
        1
      ],
      "min": [
        -1,
        -0.90824234485626221,
        -1
      ],
      "type": "VEC3"
    },
    {
      "bufferView": 1,
      "byteOffset": 1132128,
      "componentType": 5126,
      "count": 10452,
      "max": [
        0.83443009853363037,
        0.9592471718788147
      ],
      "min": [
        0.37627962231636047,
        0.33241957426071167
      ],
      "type": "VEC2"
    },
    {
      "bufferView": 0,
      "byteOffset": 2823816,
      "componentType": 5125,
      "count": 31326,
      "max": [
        10451
      ],
      "min": [
        0
      ],
      "type": "SCALAR"
    },
    {
      "bufferView": 2,
      "byteOffset": 3647232,
      "componentType": 5126,
      "count": 65532,
      "max": [
        1.0000002384185791,
        1.2467700242996216,
        1.0000002384185791
      ],
      "min": [
        -1.0000002384185791,
        -0.1645398885011673,
        -1.0000002384185791
      ],
      "type": "VEC3"
    },
    {
      "bufferView": 2,
      "byteOffset": 4433616,
      "componentType": 5126,
      "count": 65532,
      "max": [
        1,
        1,
        1
      ],
      "min": [
        -1,
        -1,
        -1
      ],
      "type": "VEC3"
    },
    {
      "bufferView": 1,
      "byteOffset": 1215744,
      "componentType": 5126,
      "count": 65532,
      "max": [
        0.87500011920928955,
        1.0000001192092896
      ],
      "min": [
        0.125,
        0
      ],
      "type": "VEC2"
    },
    {
      "bufferView": 0,
      "byteOffset": 2949120,
      "componentType": 5125,
      "count": 337314,
      "max": [
        65531
      ],
      "min": [
        0
      ],
      "type": "SCALAR"
    },
    {
      "bufferView": 2,
      "byteOffset": 5220000,
      "componentType": 5126,
      "count": 10452,
      "max": [
        0.86942595243453979,
        1.2023344039916992,
        1.0000001192092896
      ],
      "min": [
        -0.87682366371154785,
        -0.15715302526950836,
        -1.0000001192092896
      ],
      "type": "VEC3"
    },
    {
      "bufferView": 2,
      "byteOffset": 5345424,
      "componentType": 5126,
      "count": 10452,
      "max": [
        1,
        0.99978947639465332,
        1
      ],
      "min": [
        -1,
        -0.90824234485626221,
        -1
      ],
      "type": "VEC3"
    },
    {
      "bufferView": 1,
      "byteOffset": 1740000,
      "componentType": 5126,
      "count": 10452,
      "max": [
        0.83443009853363037,
        0.9592471718788147
      ],
      "min": [
        0.37627962231636047,
        0.33241957426071167
      ],
      "type": "VEC2"
    },
    {
      "bufferView": 0,
      "byteOffset": 4298376,
      "componentType": 5125,
      "count": 31326,
      "max": [
        10451
      ],
      "min": [
        0
      ],
      "type": "SCALAR"
    },
    {
      "bufferView": 3,
      "componentType": 5126,
      "count": 53,
      "max": [
        10.416666984558105
      ],
      "min": [
        0.041666667908430099
      ],
      "type": "SCALAR"
    },
    {
      "bufferView": 4,
      "componentType": 5126,
      "count": 53,
      "max": [
        0,
        1.4399998188018799,
        2.0999999046325684
      ],
      "min": [
        -2.0999999046325684,
        0,
        -0
      ],
      "type": "VEC3"
    },
    {
      "bufferView": 3,
      "byteOffset": 212,
      "componentType": 5126,
      "count": 42,
      "max": [
        10.416666984558105
      ],
      "min": [
        0.041666667908430099
      ],
      "type": "SCALAR"
    },
    {
      "bufferView": 4,
      "byteOffset": 636,
      "componentType": 5126,
      "count": 42,
      "max": [
        0,
        2.6530718803405762,
        2.0999999046325684
      ],
      "min": [
        0,
        0,
        -0
      ],
      "type": "VEC3"
    }
  ],
  "animations": [
    {
      "channels": [
        {
          "sampler": 0,
          "target": {
            "node": 7,
            "path": "translation"
          }
        },
        {
          "sampler": 1,
          "target": {
            "node": 10,
            "path": "translation"
          }
        }
      ],
      "name": "Animation",
      "samplers": [
        {
          "input": 24,
          "interpolation": "LINEAR",
          "output": 25
        },
        {
          "input": 26,
          "interpolation": "LINEAR",
          "output": 27
        }
      ]
    }
  ],
  "asset": {
    "extras": {
      "author": "borkia (https://sketchfab.com/borkia)",
      "license": "CC-BY-4.0 (http://creativecommons.org/licenses/by/4.0/)",
      "source": "https://sketchfab.com/3d-models/rgb-lego-cubes-975bf895b42a4c6ab491625019732382",
      "title": "RGB lego cubes"
    },
    "generator": "Sketchfab-7.81.0",
    "version": "2.0"
  },
  "bufferViews": [
    {
      "buffer": 0,
      "byteLength": 4423680,
      "byteOffset": 0,
      "name": "floatBufferViews",
      "target": 34963
    },
    {
      "buffer": 0,
      "byteLength": 1823616,
      "byteOffset": 4423680,
      "byteStride": 8,
      "name": "floatBufferViews",
      "target": 34962
    },
    {
      "buffer": 0,
      "byteLength": 5470848,
      "byteOffset": 6247296,
      "byteStride": 12,
      "name": "floatBufferViews",
      "target": 34962
    },
    {
      "buffer": 0,
      "byteLength": 380,
      "byteOffset": 11718144,
      "name": "floatBufferViews"
    },
    {
      "buffer": 0,
      "byteLength": 1140,
      "byteOffset": 11718524,
      "byteStride": 12,
      "name": "floatBufferViews"
    }
  ],
  "buffers": [
    {
      "byteLength": 11719664,
      "uri": "scene.bin"
    }
  ],
  "materials": [
    {
      "doubleSided": true,
      "name": "High_Gloss_Plastic_red",
      "pbrMetallicRoughness": {
        "baseColorFactor": [
          1,
          0.00068495027261020951,
          0.00068495027261020951,
          1
        ],
        "metallicFactor": 1,
        "roughnessFactor": 0.83708079268292679
      }
    },
    {
      "doubleSided": true,
      "name": "High_Gloss_Plastic_blue",
      "pbrMetallicRoughness": {
        "baseColorFactor": [
          0.0016744912637926585,
          0.16641837253963984,
          0.95040749165796068,
          1
        ],
        "metallicFactor": 0.87976371951219512,
        "roughnessFactor": 0.82145579268292679
      }
    },
    {
      "doubleSided": true,
      "name": "High_Gloss_Plastic_green",
      "pbrMetallicRoughness": {
        "baseColorFactor": [
          0.0010910712307065282,
          0.36366537358421636,
          0.004715179517155282,
          1
        ],
        "metallicFactor": 1,
        "roughnessFactor": 0.92244664634146345
      }
    }
  ],
  "meshes": [
    {
      "primitives": [
        {
          "attributes": {
            "NORMAL": 1,
            "POSITION": 0,
            "TEXCOORD_0": 2
          },
          "indices": 3,
          "material": 0,
          "mode": 4
        }
      ]
    },
    {
      "primitives": [
        {
          "attributes": {
            "NORMAL": 5,
            "POSITION": 4,
            "TEXCOORD_0": 6
          },
          "indices": 7,
          "material": 0,
          "mode": 4
        }
      ]
    },
    {
      "primitives": [
        {
          "attributes": {
            "NORMAL": 9,
            "POSITION": 8,
            "TEXCOORD_0": 10
          },
          "indices": 11,
          "material": 1,
          "mode": 4
        }
      ]
    },
    {
      "primitives": [
        {
          "attributes": {
            "NORMAL": 13,
            "POSITION": 12,
            "TEXCOORD_0": 14
          },
          "indices": 15,
          "material": 1,
          "mode": 4
        }
      ]
    },
    {
      "primitives": [
        {
          "attributes": {
            "NORMAL": 17,
            "POSITION": 16,
            "TEXCOORD_0": 18
          },
          "indices": 19,
          "material": 2,
          "mode": 4
        }
      ]
    },
    {
      "primitives": [
        {
          "attributes": {
            "NORMAL": 21,
            "POSITION": 20,
            "TEXCOORD_0": 22
          },
          "indices": 23,
          "material": 2,
          "mode": 4
        }
      ]
    }
  ],
  "nodes": [
    {
      "children": [
        1
      ],
      "name": "RootNode (gltf orientation matrix)",
      "rotation": [
        -0.70710678118654746,
        -0,
        -0,
        0.70710678118654757
      ]
    },
    {
      "children": [
        2
      ],
      "name": "RootNode (model correction matrix)"
    },
    {
      "children": [
        3
      ],
      "name": "root"
    },
    {
      "children": [
        4,
        7,
        10
      ],
      "matrix": [
        1,
        0,
        0,
        0,
        0,
        2.2204460492503131e-16,
        1,
        0,
        0,
        -1,
        2.2204460492503131e-16,
        0,
        0,
        0,
        0,
        1
      ],
      "name": "GLTF_SceneRootNode"
    },
    {
      "children": [
        5,
        6
      ],
      "name": "LEGO_CUBE-R_0"
    },
    {
      "mesh": 0,
      "name": ""
    },
    {
      "mesh": 1,
      "name": ""
    },
    {
      "children": [
        8,
        9
      ],
      "name": "LEGO_CUBE-B_1",
      "translation": [
        0,
        1.1799999475479126,
        0
      ]
    },
    {
      "mesh": 2,
      "name": ""
    },
    {
      "mesh": 3,
      "name": ""
    },
    {
      "children": [
        11,
        12
      ],
      "name": "LEGO_CUBE-G_2",
      "translation": [
        0,
        2.3599998950958252,
        0
      ]
    },
    {
      "mesh": 4,
      "name": ""
    },
    {
      "mesh": 5,
      "name": ""
    }
  ],
  "scene": 0,
  "scenes": [
    {
      "name": "OSG_Scene",
      "nodes": [
        0
      ]
    }
  ]
}

